<svg width="950" height="464" viewBox="0 0 950 464" fill="none" xmlns="http://www.w3.org/2000/svg">
<g clip-path="url(#clip0_14_256)">
<path d="M789.19 420.78H162.66V17.31C162.66 7.77 170.42 0 179.97 0H771.88C781.42 0 789.19 7.76 789.19 17.31V420.78Z" fill="#2F2E41"/>
<path d="M841.34 463.64H108.95C106.42 463.64 104.35 462.07 103.66 459.63C102.98 457.2 103.93 454.77 106.09 453.46L163.18 418.63H789.4L789.58 418.74L844.3 453.51C846.41 454.85 847.33 457.27 846.63 459.68C845.93 462.08 843.86 463.64 841.36 463.64H841.34Z" fill="#DFDFDF"/>
<path d="M772.04 25.72H179.09V394.35H772.04V25.72Z" fill="white"/>
<path d="M794.9 441.5H159.09L190.52 416H764.9L794.9 441.5Z" fill="#2F2E41"/>
<path d="M626.31 458.64H324.83L336.26 441.5H614.88L626.31 458.64Z" fill="#2F2E41"/>
<path d="M653.28 171.49H621.87C619.14 171.49 616.92 169.27 616.92 166.54C616.92 163.81 619.14 161.59 621.87 161.59H653.28C656.01 161.59 658.23 163.81 658.23 166.54C658.23 169.27 656.01 171.49 653.28 171.49Z" fill="#DFDFDF"/>
<path d="M689.4 171.49H674.74C672.01 171.49 669.79 169.27 669.79 166.54C669.79 163.81 672.01 161.59 674.74 161.59H689.4C692.13 161.59 694.35 163.81 694.35 166.54C694.35 169.27 692.13 171.49 689.4 171.49Z" fill="#DFDFDF"/>
<path d="M338.8 175.27H243.2C238.32 175.27 234.35 171.3 234.35 166.42C234.35 161.54 238.32 157.57 243.2 157.57H338.8C343.68 157.57 347.65 161.54 347.65 166.42C347.65 171.3 343.68 175.27 338.8 175.27Z" fill="#6C63FF"/>
<path d="M286.97 198.88H240.9C237.93 198.88 235.5 196.46 235.5 193.48C235.5 190.5 237.92 188.08 240.9 188.08H286.97C289.94 188.08 292.37 190.5 292.37 193.48C292.37 196.46 289.95 198.88 286.97 198.88Z" fill="#DFDFDF"/>
<path d="M540.95 220.19H239.74C236.77 220.19 234.34 217.77 234.34 214.79C234.34 211.81 236.76 209.39 239.74 209.39H540.95C543.92 209.39 546.35 211.81 546.35 214.79C546.35 217.77 543.93 220.19 540.95 220.19Z" fill="#DFDFDF"/>
<path d="M515.04 234.59H239.74C236.77 234.59 234.34 232.17 234.34 229.19C234.34 226.21 236.76 223.79 239.74 223.79H515.03C518 223.79 520.43 226.21 520.43 229.19C520.43 232.17 518.01 234.59 515.03 234.59H515.04Z" fill="#DFDFDF"/>
<path d="M838.74 152.18L824.02 157.02V135.82H837.38L838.74 152.18Z" fill="#F2A7AA"/>
<path d="M825.84 141.69C833.942 141.69 840.51 135.122 840.51 127.02C840.51 118.918 833.942 112.35 825.84 112.35C817.738 112.35 811.17 118.918 811.17 127.02C811.17 135.122 817.738 141.69 825.84 141.69Z" fill="#F2A7AA"/>
<path d="M829.87 125.57C827.41 125.5 825.8 123.01 824.85 120.75C823.9 118.48 822.91 115.88 820.64 114.94C818.78 114.17 815.49 119.34 814.02 117.97C812.49 116.54 813.98 109.16 815.61 107.84C817.24 106.52 819.46 106.26 821.56 106.16C826.67 105.92 831.82 106.34 836.83 107.38C839.93 108.03 843.12 109 845.36 111.24C848.19 114.08 848.92 118.37 849.12 122.38C849.33 126.48 849.09 130.78 847.1 134.36C845.11 137.95 840.93 140.6 836.93 139.68C836.53 137.5 836.93 135.27 837.09 133.06C837.24 130.85 837.09 128.47 835.74 126.71C834.39 124.95 831.51 124.26 829.94 125.82" fill="#36344E"/>
<path d="M847.92 130.65C849.39 129.57 851.14 128.68 852.95 128.9C854.9 129.14 856.55 130.75 857.05 132.65C857.55 134.55 856.99 136.65 855.78 138.2C854.57 139.75 852.78 140.78 850.88 141.3C849.78 141.6 848.58 141.72 847.53 141.27C845.99 140.61 845.16 138.63 845.76 137.07" fill="#36344E"/>
<path d="M833.88 388H820.09V407.56H833.88V388Z" fill="#F2A7AA"/>
<path d="M806.66 419.41C805.21 419.41 803.92 419.37 802.95 419.28C799.29 418.94 795.79 416.24 794.03 414.66C793.24 413.95 792.99 412.82 793.4 411.84C793.69 411.14 794.28 410.62 795.01 410.41L804.69 407.64L820.36 397.06L820.53 397.37C820.6 397.49 822.13 400.26 822.65 402.13C822.85 402.84 822.79 403.44 822.5 403.9C822.29 404.22 822.01 404.4 821.77 404.51C822.05 404.81 822.94 405.41 825.68 405.85C829.67 406.49 830.52 402.34 830.55 402.17L830.58 402.03L830.7 401.95C832.6 400.72 833.77 400.17 834.18 400.29C834.43 400.37 834.85 400.49 835.99 411.78C836.1 412.13 836.9 414.73 836.36 417.21C835.77 419.91 823.97 418.98 821.61 418.77C821.54 418.77 812.71 419.41 806.65 419.41H806.66Z" fill="#36344E"/>
<path d="M873.141 372.617L861.44 379.915L871.79 396.512L883.491 389.214L873.141 372.617Z" fill="#F2A7AA"/>
<path d="M857.61 416.73C855.99 416.73 854.5 416.54 853.44 416.35C852.4 416.17 851.58 415.34 851.41 414.29C851.29 413.54 851.51 412.79 852.02 412.22L858.77 404.75L866.47 387.48L866.78 387.65C866.9 387.71 869.67 389.25 871.1 390.57C871.64 391.07 871.91 391.6 871.9 392.15C871.9 392.53 871.75 392.84 871.61 393.05C872.01 393.15 873.08 393.19 875.64 392.11C879.37 390.54 877.89 386.57 877.83 386.4L877.78 386.27L877.84 386.14C878.81 384.09 879.5 383 879.91 382.89C880.16 382.82 880.59 382.71 887.52 391.68C887.8 391.92 889.85 393.7 890.71 396.1C891.64 398.7 881.13 404.16 879.02 405.23C878.95 405.28 867.96 413.27 863.45 415.54C861.66 416.44 859.54 416.72 857.61 416.72V416.73Z" fill="#36344E"/>
<path d="M844.04 224.38H805.43L801.93 260.3L817.26 393.01H836.97L829.09 316.36L861.06 385.56L878.58 373.3L853.61 308.7C853.61 308.7 862.53 252.42 855.52 238.4C848.51 224.38 844.04 224.38 844.04 224.38Z" fill="#36344E"/>
<path d="M863.24 226.57H801.92L820.32 147.3H847.03L863.24 226.57Z" fill="#6C63FF"/>
<path d="M786.69 145.73C785.71 140.91 787.5 136.5 790.69 135.89C793.88 135.28 797.25 138.69 798.23 143.52C798.65 145.44 798.58 147.43 798.04 149.33L801.92 169.82L791.9 171.4L789.14 151.04C787.9 149.49 787.06 147.67 786.69 145.73Z" fill="#F2A7AA"/>
<path d="M846.38 147.3H822.82L806.94 179.07L800.95 155.27L787.79 156.67C787.79 156.67 790.9 203.18 804.52 201.61C818.13 200.04 849.88 158.13 846.39 147.31L846.38 147.3Z" fill="#6C63FF"/>
<path d="M872.7 268.11C873.68 272.93 871.89 277.34 868.7 277.95C865.51 278.56 862.14 275.15 861.16 270.32C860.74 268.4 860.81 266.41 861.35 264.51L857.47 244.02L867.49 242.44L870.25 262.8C871.49 264.35 872.33 266.17 872.7 268.11Z" fill="#F2A7AA"/>
<path d="M832.95 147.3C832.95 147.3 846.34 146.73 847.03 147.3C850.68 150.29 872.12 257.96 872.12 257.96H858.54L832.94 147.3H832.95Z" fill="#6C63FF"/>
<rect x="178" y="26" width="594" height="367" fill="white"/>
<g clip-path="url(#clip1_14_256)">
<path d="M749.219 241.514L748.176 250.298L745.587 272.116H693.577C693.984 267.226 694.539 260.187 695.132 252.589C695.19 251.83 695.252 251.066 695.31 250.298C696.798 231.198 698.425 209.584 698.425 209.584L705.263 210.931L718.529 213.54L723.935 214.602L738.41 217.453C745.628 218.871 750.592 229.922 749.219 241.514Z" fill="#F2F2F2"/>
<path d="M709.879 174.24L716.274 186.076L703.982 195.288L698.738 180.74L709.879 174.24Z" fill="#FFB6B6"/>
<path d="M701.736 185.437C710.487 185.437 717.581 177.935 717.581 168.681C717.581 159.427 710.487 151.926 701.736 151.926C692.985 151.926 685.892 159.427 685.892 168.681C685.892 177.935 692.985 185.437 701.736 185.437Z" fill="#FFB6B6"/>
<path d="M700.599 172.427C699.34 170.402 699.834 169.343 698.781 168.599C698.781 168.599 698.357 168.3 695.324 168.129C694.645 162.96 693.797 162.333 693.797 162.333C692.82 161.61 691.37 161.845 690.467 162.287C688.559 163.222 688.781 165.24 687.496 165.627C685.721 166.16 682.493 163.152 682.174 159.708C681.915 156.898 683.627 154.17 684.305 154.314C684.979 154.457 686.59 152.282 687.46 152.315C688.054 152.338 690.482 151.222 691.135 151.31C691.849 151.405 694.2 152.703 694.298 152.406C694.98 150.346 694.779 149.774 695.357 149.184C696.381 148.14 698.056 148.867 700.684 149.258C706.091 150.061 707.035 148.176 709.806 149.454C711.205 150.099 712.377 151.84 714.662 155.296C717.858 160.128 719.456 162.544 719.466 165.363C719.477 168.237 718.161 168.054 717.582 172.309C716.939 177.045 718.306 179.211 716.813 180.75C715.658 181.939 713.312 182.221 712.079 181.177C709.968 179.39 712.73 175.079 710.395 171.928C708.961 169.994 706.077 169.134 704.756 170.09C703.263 171.171 704.086 174.343 703.035 174.644C702.136 174.902 700.818 172.78 700.599 172.427Z" fill="#2F2E41"/>
<path d="M737.508 238.42C737.066 246.411 735.31 248.934 734.696 258.372C734.561 260.444 734.481 262.849 734.481 265.717C734.481 266.448 734.484 267.155 734.484 267.846C734.484 269.316 734.458 270.706 734.296 272.115C734.173 273.241 733.962 274.374 733.612 275.569H699.487C699.483 275.561 699.483 275.552 699.479 275.544C699.279 274.626 699.153 273.749 699.057 272.908C699.026 272.64 698.999 272.376 698.976 272.115C698.945 271.811 698.918 271.51 698.891 271.214C698.788 270.031 698.684 268.914 698.438 267.846C698.108 266.371 697.508 264.982 696.279 263.641C695.776 263.092 695.273 262.666 694.781 262.292C694.685 262.223 694.592 262.154 694.496 262.085C693.136 261.098 691.85 260.387 690.735 258.372C690.716 258.343 690.701 258.311 690.686 258.282C690.493 257.929 689.994 257.003 689.633 255.768C689.252 254.484 689.022 252.871 689.437 251.222C690.424 247.313 694.082 246.923 697.07 242.975C697.393 242.548 697.712 242.077 698.015 241.553C699.368 239.229 699.733 237.181 700.163 234.748C700.232 234.354 700.293 233.964 700.343 233.586C700.382 233.302 700.417 233.021 700.444 232.745C700.681 230.425 700.566 228.426 700.286 226.639C699.372 220.785 696.675 217.161 698.58 211.908C699.18 210.259 700.029 209.019 700.885 207.959C702.698 205.712 704.562 204.254 704.239 201.353C703.912 198.428 701.815 198.026 701.581 195.471C701.461 194.179 701.861 192.818 702.61 191.481V191.477C705.007 187.175 710.993 183.214 714.796 183.34C715.499 183.36 716.121 183.527 716.64 183.848C718.519 185.018 717.735 187.573 720.612 191.156C722.752 193.817 725.172 194.882 726.09 195.385C729.728 197.392 732.687 203.312 734.696 210.88C734.711 210.937 734.726 210.994 734.742 211.055C735.983 215.796 736.859 221.179 737.293 226.639C737.477 228.95 737.585 231.274 737.608 233.574C737.627 235.41 737.588 237.003 737.508 238.42Z" fill="#6C63FF"/>
<path d="M711.953 265.798L711.257 267.846L710.82 269.129L709.805 272.115L708.63 275.569H701.073L702.341 272.115L702.929 270.507L703.905 267.846L705.541 263.377L711.953 265.798Z" fill="#FFB6B6"/>
<path d="M734.815 210.181C734.796 210.446 734.769 210.738 734.742 211.055C734.442 214.281 733.735 220.054 732.702 226.639C732.156 230.112 731.519 233.814 730.8 237.49C729.256 245.424 727.335 253.237 725.164 258.372C724.777 259.298 724.377 260.135 723.97 260.874C723.659 261.439 723.332 261.996 722.99 262.544C721.884 264.344 720.643 266.05 719.356 267.643C719.306 267.712 719.248 267.777 719.191 267.846C718.983 268.106 718.768 268.362 718.553 268.618C717.5 269.873 716.425 271.043 715.384 272.116C714.116 273.424 712.894 274.582 711.799 275.569H699.529L699.479 275.544L697.712 274.716C697.712 274.716 698.215 274.09 699.056 272.908C699.229 272.668 699.414 272.404 699.614 272.116C699.859 271.762 700.125 271.372 700.409 270.95C701 270.064 701.673 269.024 702.395 267.846C703.793 265.567 705.387 262.763 706.997 259.518C707.182 259.14 707.37 258.758 707.558 258.372C707.562 258.36 707.57 258.347 707.573 258.335C707.892 257.677 708.207 256.999 708.522 256.308C711.192 250.433 711.957 245.558 712.176 243.978C712.483 241.744 712.909 238.619 712.794 235.183C712.717 232.916 712.406 230.519 711.665 228.138V228.134C711.511 227.634 711.338 227.135 711.142 226.639C710.793 225.749 710.378 224.872 709.886 224.006C707.716 220.196 705.952 220.037 704.55 215.885C704.135 214.654 703.194 211.876 703.482 208.942V208.938C703.517 208.577 703.574 208.211 703.651 207.845V207.841C703.67 207.74 703.697 207.634 703.724 207.533C703.943 206.635 704.304 205.745 704.854 204.9C705.925 203.259 707.389 202.284 708.699 201.703L708.703 201.699C710.216 201.033 711.523 200.89 711.776 200.866C717.389 200.338 721.741 205.327 724.12 208.053C725.038 209.105 725.879 209.987 726.648 210.705C732.629 216.353 734.269 212.745 734.696 210.88C734.761 210.592 734.796 210.344 734.815 210.181Z" fill="#6C63FF"/>
<path d="M734.834 209.97C734.834 209.99 734.83 210.059 734.815 210.173C734.822 210.112 734.827 210.051 734.83 209.994C734.83 209.982 734.83 209.974 734.834 209.97Z" fill="#6C63FF"/>
<path d="M704.324 295.695H498.391C496.478 295.695 494.918 297.34 494.918 299.363C494.918 301.391 496.478 303.036 498.391 303.036H704.324C706.237 303.036 707.793 301.391 707.793 299.363C707.793 297.34 706.237 295.695 704.324 295.695Z" fill="#E6E6E6"/>
<path d="M658.623 314.659H544.087C542.174 314.659 540.618 316.304 540.618 318.327C540.618 320.351 542.174 322 544.087 322H658.623C660.536 322 662.096 320.351 662.096 318.327C662.096 316.304 660.536 314.659 658.623 314.659Z" fill="#E6E6E6"/>
<path d="M521.306 175.019L534.284 169.242L539.851 181.311L526.213 187.197L521.306 175.019Z" fill="#FFB6B6"/>
<path opacity="0.1" d="M521.306 175.019L534.284 169.242L539.851 181.311L526.213 187.197L521.306 175.019Z" fill="black"/>
<path d="M523.151 170.42L535.955 186.02C535.955 186.02 527.048 215.749 518.141 218.398C509.234 221.047 492.812 233.998 492.812 233.998L472.215 219.87L482.235 204.269C482.235 204.269 506.451 169.242 512.852 169.242C519.254 169.242 523.151 170.42 523.151 170.42Z" fill="#6C63FF"/>
<path d="M505.852 272.116H476.048L474.164 269.452L466.47 258.576L464.7 256.074C464.7 256.074 458.02 243.123 459.412 231.349C460.803 219.575 475.277 216.926 475.277 216.926H475.873L493.592 233.392L492.534 248.715L498.145 258.576L505.852 272.116Z" fill="#2F2E41"/>
<path d="M482.152 272.116H474.164V259.606L482.152 272.116Z" fill="#2F2E41"/>
<path d="M654.449 253.125L653.455 258.576L650.989 272.116H601.448C601.834 269.081 602.363 264.713 602.928 259.997C602.984 259.527 603.042 259.053 603.098 258.576C604.515 246.723 606.065 233.309 606.065 233.309L612.578 234.145L625.215 235.764L630.364 236.424L644.153 238.193C651.028 239.073 655.757 245.931 654.449 253.125Z" fill="#F2F2F2"/>
<path d="M724.559 272.116H697.688C698.098 271.606 698.329 271.312 698.329 271.312L706.384 269.905L722.981 267.009C722.981 267.009 723.738 269.078 724.559 272.116Z" fill="#2F2E41"/>
<path d="M610.581 180.906L622.266 198.382L601.883 199.026L599.695 182.602L610.581 180.906Z" fill="#A0616A"/>
<path opacity="0.1" d="M610.581 180.906L622.266 198.382L601.883 199.026L599.695 182.602L610.581 180.906Z" fill="black"/>
<path d="M552.952 217.116C551.453 212.542 548.006 209.652 545.253 210.662C542.501 211.671 541.485 216.197 542.986 220.773C543.562 222.609 544.545 224.273 545.853 225.625L552.438 244.921L560.934 241.46L553.541 222.806C553.777 220.886 553.576 218.935 552.952 217.116Z" fill="#A0616A"/>
<path d="M632.053 208.211L632.037 226.021L630.47 232.6L627.247 246.131L624.9 258.576L623.152 267.848L622.529 271.159C622.058 271.492 621.591 271.81 621.123 272.116H580.411C578.098 270.647 576.803 269.505 576.803 269.505C576.803 269.505 577.444 268.869 578.176 267.848C579.411 266.123 580.906 263.297 579.99 260.598C579.798 260.033 579.748 259.344 579.807 258.576C580.18 253.507 585.206 244.936 585.206 244.936L584.166 232.214L583.709 226.64L586.927 199.457L597.418 193.008L599.229 192.822L617.107 191.801L624.496 192.251L624.833 192.349L632.053 208.211Z" fill="#CCCCCC"/>
<path d="M632.847 272.116H623.94L623.547 267.848L623.539 267.762L626.061 267.58L632.621 267.106L632.735 269.661L632.824 271.621L632.847 272.116Z" fill="#FFB6B6"/>
<path d="M635.039 212.517L638.781 235.732L635.727 258.576L635.252 262.131L634.411 268.41L634.152 270.341L634.16 270.55L634.224 272.116H623.648L623.258 267.848L623.225 267.465L622.428 258.723L622.415 258.576L620.725 240.038L624.037 226.639L624.282 225.653V225.65L625.723 202.709L624.607 192.284L624.596 192.187C624.618 192.201 624.638 192.216 624.66 192.231C624.719 192.269 624.777 192.307 624.833 192.348C631.335 196.711 635.209 204.364 635.039 212.517Z" fill="#CCCCCC"/>
<path d="M590.717 203.905L586.649 199.456C586.649 199.456 577.942 203.607 577.508 205.91C577.074 208.213 561.701 242.037 561.701 242.037L555.013 223.146L546.307 229.293C546.307 229.293 553.293 258.622 559.826 259.999C566.359 261.376 588.255 225.286 588.255 225.286L590.717 203.905Z" fill="#CCCCCC"/>
<path d="M755.867 258.372H439.129C434.646 258.372 431 262.231 431 266.972C431 271.713 434.646 275.569 439.129 275.569H755.867C760.35 275.569 764 271.713 764 266.972C764 262.231 760.35 258.372 755.867 258.372Z" fill="#E6E6E6"/>
<path d="M630.199 232.165L629.583 262.554C629.524 265.496 627.252 267.848 624.469 267.848H571.607C568.89 267.848 566.647 265.602 566.499 262.734L564.928 232.344C564.768 229.245 567.101 226.64 570.036 226.64H625.085C627.953 226.64 630.261 229.133 630.199 232.165Z" fill="#3F3D56"/>
<path d="M544.861 182.354C551.846 182.354 557.509 176.366 557.509 168.98C557.509 161.593 551.846 155.605 544.861 155.605C537.876 155.605 532.214 161.593 532.214 168.98C532.214 176.366 537.876 182.354 544.861 182.354Z" fill="#FFB6B6"/>
<path d="M523.708 203.975L525.099 219.87L534.563 260.195L526.387 263.225L512.574 219.281L510.666 201.62L523.708 203.975Z" fill="#FFB6B6"/>
<path d="M519.943 232.165L519.327 262.554C519.268 265.496 516.996 267.848 514.213 267.848H461.351C458.634 267.848 456.391 265.602 456.243 262.734L454.672 232.344C454.512 229.245 456.845 226.64 459.78 226.64H514.829C517.697 226.64 520.005 229.133 519.943 232.165Z" fill="#3F3D56"/>
<path d="M536.07 268.053C541.586 268.053 546.058 265.961 546.058 263.381C546.058 260.801 541.586 258.709 536.07 258.709C530.553 258.709 526.081 260.801 526.081 263.381C526.081 265.961 530.553 268.053 536.07 268.053Z" fill="#FFB6B6"/>
<path d="M504.085 206.405L509.791 174.246C509.791 174.246 525.656 171.891 526.213 177.484C526.77 183.077 525.815 210.408 525.815 210.408L504.085 206.405Z" fill="#6C63FF"/>
<path d="M539.756 171.083C539.756 171.083 547.58 168.13 550.88 166.541C554.18 164.952 560.737 176.034 560.882 170.181C561.028 164.329 558.763 161.874 558.763 161.874C558.763 161.874 558.197 149.071 545.999 150.672C545.999 150.672 548.682 144.266 539.875 143.276C531.069 142.285 517.367 164.775 518.594 168.136C519.821 171.497 521.292 174.276 517.811 177.87C514.33 181.463 507.811 201.745 512.771 207.203C517.731 212.661 518.056 215.029 514.658 218.424C511.26 221.82 503.227 229.202 511.912 230.484C520.597 231.766 511.118 230.808 517.592 224.786C524.067 218.763 533.515 219.009 529.987 209.346C526.46 199.683 532.589 185.836 531.822 183.736C531.055 181.635 533.54 168.296 533.54 168.296C533.54 168.296 539.324 167.397 539.756 171.083Z" fill="#2F2E41"/>
<path d="M604.333 187.231C611.937 187.231 618.101 180.713 618.101 172.672C618.101 164.631 611.937 158.113 604.333 158.113C596.729 158.113 590.565 164.631 590.565 172.672C590.565 180.713 596.729 187.231 604.333 187.231Z" fill="#A0616A"/>
<path d="M605.432 153.098C605.033 153.344 604.5 152.972 604.372 152.503C604.244 152.034 604.393 151.537 604.541 151.074L605.283 148.748C605.81 147.098 606.369 145.39 607.51 144.134C609.232 142.238 611.969 141.756 614.433 142.105C617.597 142.554 620.719 144.366 622.19 147.362C623.661 150.358 623.035 154.538 620.377 156.407C624.165 160.999 625.486 166.117 625.277 172.207C625.069 178.298 618.793 183.903 614.7 188.193C613.786 187.607 612.955 184.861 613.458 183.864C613.96 182.866 613.24 181.711 613.863 180.792C614.485 179.873 615.006 181.336 614.377 180.422C613.98 179.846 615.529 178.52 614.939 178.175C612.084 176.506 611.135 172.742 609.342 169.861C607.179 166.385 603.477 164.031 599.56 163.64C597.402 163.425 595.123 163.815 593.354 165.14C591.585 166.464 590.44 168.832 590.85 171.083C589.788 169.942 589.259 168.27 589.458 166.683C589.658 165.097 590.581 163.629 591.888 162.821C591.093 160.042 591.774 156.845 593.619 154.694C595.464 152.543 602.947 152.91 605.64 153.476L605.432 153.098Z" fill="#2F2E41"/>
<path d="M605.85 163.725C609.417 164.132 611.992 167.399 614.167 170.417C615.42 172.156 616.733 174.077 616.702 176.263C616.67 178.474 615.272 180.37 614.605 182.465C613.513 185.889 614.577 189.963 617.176 192.31C614.608 192.825 611.832 190.789 611.388 188.065C610.872 184.893 613.145 181.832 612.876 178.627C612.639 175.803 610.535 173.63 608.746 171.519C606.957 169.407 605.276 166.605 606.1 163.907L605.85 163.725Z" fill="#2F2E41"/>
<path d="M659.175 260.212C655.642 262.337 653.815 265.988 655.094 268.365C656.374 270.743 660.274 270.947 663.808 268.821C665.231 267.992 666.445 266.814 667.35 265.387L682.212 256.183L677.979 248.9L663.777 258.747C662.154 258.84 660.576 259.342 659.175 260.212Z" fill="#FFB6B6"/>
<path d="M709.496 192.718C709.052 192.532 705.155 190.971 701.597 193.031C697.51 195.398 696.879 200.802 696.658 202.697C696.146 207.075 697.653 208.056 697.971 212.488C698.566 220.78 700.135 211.32 697.629 215.105C696.762 216.415 687.903 236.717 683.018 240.694C673.516 248.428 667.482 253.875 667.482 253.875L674.37 261.788C674.37 261.788 685.255 258.721 694.876 252.115C704.744 245.338 709.679 241.95 713.496 235.322C713.825 234.751 721.691 220.625 717.466 205.005C716.503 201.442 714.737 194.914 709.496 192.718Z" fill="#6C63FF"/>
<path d="M745.065 232.165L744.449 262.554C744.39 265.496 742.118 267.848 739.335 267.848H686.473C683.756 267.848 681.513 265.602 681.365 262.734L679.794 232.344C679.634 229.245 681.967 226.64 684.902 226.64H739.951C742.819 226.64 745.127 229.133 745.065 232.165Z" fill="#3F3D56"/>
</g>
<path d="M246.817 159.493C246.737 158.691 246.396 158.068 245.793 157.624C245.189 157.179 244.371 156.957 243.337 156.957C242.634 156.957 242.041 157.057 241.557 157.256C241.073 157.448 240.702 157.716 240.443 158.061C240.191 158.406 240.065 158.797 240.065 159.234C240.052 159.599 240.128 159.917 240.294 160.189C240.466 160.461 240.702 160.696 241 160.895C241.298 161.087 241.643 161.256 242.034 161.402C242.425 161.541 242.843 161.661 243.287 161.76L245.116 162.197C246.005 162.396 246.82 162.661 247.562 162.993C248.305 163.324 248.948 163.732 249.491 164.216C250.035 164.7 250.456 165.27 250.754 165.926C251.059 166.582 251.215 167.335 251.222 168.183C251.215 169.429 250.897 170.51 250.267 171.425C249.644 172.333 248.742 173.039 247.562 173.543C246.389 174.04 244.974 174.288 243.317 174.288C241.673 174.288 240.241 174.036 239.021 173.533C237.808 173.029 236.86 172.283 236.178 171.295C235.501 170.301 235.147 169.071 235.114 167.607H239.28C239.326 168.289 239.522 168.859 239.866 169.317C240.218 169.768 240.685 170.109 241.268 170.341C241.858 170.566 242.525 170.679 243.267 170.679C243.996 170.679 244.629 170.573 245.166 170.361C245.71 170.149 246.131 169.854 246.429 169.476C246.727 169.098 246.876 168.664 246.876 168.173C246.876 167.716 246.741 167.331 246.469 167.02C246.204 166.708 245.813 166.443 245.295 166.224C244.785 166.006 244.159 165.807 243.416 165.628L241.199 165.071C239.482 164.653 238.126 164 237.132 163.112C236.138 162.224 235.644 161.027 235.651 159.523C235.644 158.29 235.972 157.213 236.635 156.291C237.304 155.37 238.223 154.651 239.389 154.134C240.556 153.616 241.882 153.358 243.366 153.358C244.878 153.358 246.197 153.616 247.324 154.134C248.457 154.651 249.339 155.37 249.969 156.291C250.598 157.213 250.923 158.28 250.943 159.493H246.817ZM260.939 174.298C259.394 174.298 258.058 173.97 256.931 173.314C255.811 172.651 254.946 171.73 254.336 170.55C253.726 169.363 253.422 167.988 253.422 166.423C253.422 164.846 253.726 163.467 254.336 162.287C254.946 161.1 255.811 160.179 256.931 159.523C258.058 158.86 259.394 158.528 260.939 158.528C262.483 158.528 263.815 158.86 264.936 159.523C266.063 160.179 266.931 161.1 267.541 162.287C268.151 163.467 268.456 164.846 268.456 166.423C268.456 167.988 268.151 169.363 267.541 170.55C266.931 171.73 266.063 172.651 264.936 173.314C263.815 173.97 262.483 174.298 260.939 174.298ZM260.958 171.017C261.661 171.017 262.248 170.818 262.718 170.42C263.189 170.016 263.544 169.466 263.782 168.77C264.028 168.074 264.15 167.282 264.15 166.393C264.15 165.505 264.028 164.713 263.782 164.017C263.544 163.321 263.189 162.771 262.718 162.366C262.248 161.962 261.661 161.76 260.958 161.76C260.249 161.76 259.653 161.962 259.169 162.366C258.691 162.771 258.33 163.321 258.085 164.017C257.846 164.713 257.727 165.505 257.727 166.393C257.727 167.282 257.846 168.074 258.085 168.77C258.33 169.466 258.691 170.016 259.169 170.42C259.653 170.818 260.249 171.017 260.958 171.017ZM275.446 153.636V174H271.21V153.636H275.446ZM283.194 174.288C282.219 174.288 281.351 174.119 280.589 173.781C279.826 173.437 279.223 172.929 278.779 172.26C278.342 171.584 278.123 170.742 278.123 169.734C278.123 168.886 278.279 168.173 278.59 167.597C278.902 167.02 279.326 166.556 279.863 166.205C280.4 165.853 281.01 165.588 281.692 165.409C282.382 165.23 283.104 165.104 283.86 165.031C284.748 164.938 285.464 164.852 286.008 164.773C286.551 164.687 286.946 164.561 287.191 164.395C287.436 164.229 287.559 163.984 287.559 163.659V163.599C287.559 162.97 287.36 162.482 286.962 162.138C286.571 161.793 286.014 161.621 285.292 161.621C284.53 161.621 283.923 161.79 283.472 162.128C283.022 162.459 282.723 162.877 282.577 163.381L278.66 163.062C278.859 162.134 279.25 161.332 279.833 160.656C280.416 159.973 281.169 159.45 282.09 159.085C283.018 158.714 284.092 158.528 285.312 158.528C286.16 158.528 286.972 158.628 287.748 158.827C288.53 159.026 289.223 159.334 289.826 159.751C290.436 160.169 290.916 160.706 291.268 161.362C291.619 162.012 291.795 162.791 291.795 163.699V174H287.778V171.882H287.658C287.413 172.359 287.085 172.78 286.674 173.145C286.263 173.503 285.769 173.785 285.192 173.99C284.616 174.189 283.95 174.288 283.194 174.288ZM284.407 171.365C285.03 171.365 285.58 171.242 286.058 170.997C286.535 170.745 286.909 170.407 287.181 169.983C287.453 169.559 287.589 169.078 287.589 168.541V166.92C287.456 167.007 287.274 167.086 287.042 167.159C286.817 167.225 286.561 167.288 286.276 167.348C285.991 167.401 285.706 167.451 285.421 167.497C285.136 167.537 284.878 167.573 284.646 167.607C284.148 167.679 283.714 167.795 283.343 167.955C282.972 168.114 282.683 168.329 282.478 168.601C282.272 168.866 282.17 169.197 282.17 169.595C282.17 170.172 282.379 170.613 282.796 170.918C283.22 171.216 283.757 171.365 284.407 171.365ZM299.317 165.17V174H295.081V158.727H299.118V161.422H299.297C299.635 160.534 300.202 159.831 300.997 159.314C301.793 158.79 302.757 158.528 303.891 158.528C304.951 158.528 305.876 158.76 306.665 159.224C307.454 159.688 308.067 160.351 308.504 161.213C308.942 162.068 309.161 163.089 309.161 164.276V174H304.925V165.031C304.931 164.097 304.693 163.367 304.209 162.844C303.725 162.313 303.059 162.048 302.21 162.048C301.64 162.048 301.136 162.171 300.699 162.416C300.268 162.661 299.93 163.019 299.685 163.49C299.446 163.954 299.323 164.514 299.317 165.17ZM316.854 174.288C315.88 174.288 315.011 174.119 314.249 173.781C313.487 173.437 312.883 172.929 312.439 172.26C312.002 171.584 311.783 170.742 311.783 169.734C311.783 168.886 311.939 168.173 312.25 167.597C312.562 167.02 312.986 166.556 313.523 166.205C314.06 165.853 314.67 165.588 315.353 165.409C316.042 165.23 316.765 165.104 317.52 165.031C318.408 164.938 319.124 164.852 319.668 164.773C320.212 164.687 320.606 164.561 320.851 164.395C321.096 164.229 321.219 163.984 321.219 163.659V163.599C321.219 162.97 321.02 162.482 320.623 162.138C320.231 161.793 319.675 161.621 318.952 161.621C318.19 161.621 317.583 161.79 317.132 162.128C316.682 162.459 316.383 162.877 316.238 163.381L312.32 163.062C312.519 162.134 312.91 161.332 313.493 160.656C314.077 159.973 314.829 159.45 315.75 159.085C316.678 158.714 317.752 158.528 318.972 158.528C319.82 158.528 320.632 158.628 321.408 158.827C322.19 159.026 322.883 159.334 323.486 159.751C324.096 160.169 324.577 160.706 324.928 161.362C325.279 162.012 325.455 162.791 325.455 163.699V174H321.438V171.882H321.319C321.073 172.359 320.745 172.78 320.334 173.145C319.923 173.503 319.429 173.785 318.853 173.99C318.276 174.189 317.61 174.288 316.854 174.288ZM318.067 171.365C318.69 171.365 319.24 171.242 319.718 170.997C320.195 170.745 320.569 170.407 320.841 169.983C321.113 169.559 321.249 169.078 321.249 168.541V166.92C321.116 167.007 320.934 167.086 320.702 167.159C320.477 167.225 320.221 167.288 319.936 167.348C319.651 167.401 319.366 167.451 319.081 167.497C318.796 167.537 318.538 167.573 318.306 167.607C317.809 167.679 317.374 167.795 317.003 167.955C316.632 168.114 316.344 168.329 316.138 168.601C315.933 168.866 315.83 169.197 315.83 169.595C315.83 170.172 316.039 170.613 316.456 170.918C316.881 171.216 317.417 171.365 318.067 171.365Z" fill="black" fill-opacity="0.7"/>
<path d="M243.903 269.727V272.909H234.477V269.727H243.903ZM236.635 285V268.624C236.635 267.517 236.85 266.598 237.281 265.869C237.719 265.14 238.315 264.593 239.071 264.229C239.827 263.864 240.685 263.682 241.646 263.682C242.296 263.682 242.889 263.732 243.426 263.831C243.97 263.93 244.374 264.02 244.639 264.099L243.884 267.281C243.718 267.228 243.512 267.179 243.267 267.132C243.028 267.086 242.783 267.062 242.531 267.062C241.908 267.062 241.474 267.208 241.229 267.5C240.983 267.785 240.861 268.186 240.861 268.703V285H236.635ZM246.491 285V269.727H250.598V272.392H250.757C251.035 271.444 251.502 270.728 252.159 270.244C252.815 269.754 253.571 269.509 254.426 269.509C254.638 269.509 254.867 269.522 255.112 269.548C255.357 269.575 255.573 269.611 255.758 269.658V273.416C255.559 273.357 255.284 273.304 254.933 273.257C254.582 273.211 254.26 273.188 253.968 273.188C253.345 273.188 252.788 273.323 252.298 273.595C251.814 273.86 251.43 274.232 251.145 274.709C250.866 275.186 250.727 275.736 250.727 276.359V285H246.491ZM264.197 285.298C262.626 285.298 261.274 284.98 260.141 284.344C259.014 283.701 258.145 282.793 257.536 281.619C256.926 280.439 256.621 279.044 256.621 277.433C256.621 275.862 256.926 274.483 257.536 273.297C258.145 272.11 259.004 271.186 260.111 270.523C261.224 269.86 262.53 269.528 264.028 269.528C265.036 269.528 265.974 269.691 266.842 270.016C267.717 270.334 268.48 270.814 269.129 271.457C269.786 272.1 270.296 272.909 270.661 273.884C271.025 274.851 271.207 275.985 271.207 277.284V278.447H258.311V275.822H267.22C267.22 275.213 267.088 274.672 266.822 274.202C266.557 273.731 266.189 273.363 265.719 273.098C265.255 272.826 264.714 272.69 264.098 272.69C263.455 272.69 262.885 272.839 262.388 273.138C261.897 273.429 261.513 273.824 261.234 274.321C260.956 274.812 260.813 275.358 260.807 275.962V278.457C260.807 279.213 260.946 279.866 261.224 280.416C261.509 280.966 261.911 281.391 262.428 281.689C262.945 281.987 263.558 282.136 264.267 282.136C264.738 282.136 265.169 282.07 265.56 281.938C265.951 281.805 266.286 281.606 266.564 281.341C266.842 281.076 267.054 280.751 267.2 280.366L271.118 280.625C270.919 281.566 270.511 282.388 269.895 283.091C269.285 283.787 268.496 284.33 267.528 284.722C266.567 285.106 265.457 285.298 264.197 285.298ZM280.932 285.298C279.361 285.298 278.009 284.98 276.875 284.344C275.748 283.701 274.88 282.793 274.27 281.619C273.66 280.439 273.355 279.044 273.355 277.433C273.355 275.862 273.66 274.483 274.27 273.297C274.88 272.11 275.738 271.186 276.845 270.523C277.959 269.86 279.265 269.528 280.763 269.528C281.77 269.528 282.708 269.691 283.577 270.016C284.452 270.334 285.214 270.814 285.864 271.457C286.52 272.1 287.03 272.909 287.395 273.884C287.759 274.851 287.942 275.985 287.942 277.284V278.447H275.045V275.822H283.955C283.955 275.213 283.822 274.672 283.557 274.202C283.292 273.731 282.924 273.363 282.453 273.098C281.989 272.826 281.449 272.69 280.832 272.69C280.189 272.69 279.619 272.839 279.122 273.138C278.632 273.429 278.247 273.824 277.969 274.321C277.69 274.812 277.548 275.358 277.541 275.962V278.457C277.541 279.213 277.68 279.866 277.959 280.416C278.244 280.966 278.645 281.391 279.162 281.689C279.679 281.987 280.292 282.136 281.001 282.136C281.472 282.136 281.903 282.07 282.294 281.938C282.685 281.805 283.02 281.606 283.298 281.341C283.577 281.076 283.789 280.751 283.935 280.366L287.852 280.625C287.653 281.566 287.246 282.388 286.629 283.091C286.019 283.787 285.231 284.33 284.263 284.722C283.302 285.106 282.191 285.298 280.932 285.298ZM294.942 264.636V285H290.706V264.636H294.942ZM302.69 285.288C301.716 285.288 300.847 285.119 300.085 284.781C299.323 284.437 298.719 283.929 298.275 283.26C297.838 282.584 297.619 281.742 297.619 280.734C297.619 279.886 297.775 279.173 298.086 278.597C298.398 278.02 298.822 277.556 299.359 277.205C299.896 276.853 300.506 276.588 301.189 276.409C301.878 276.23 302.6 276.104 303.356 276.031C304.244 275.938 304.96 275.852 305.504 275.773C306.047 275.687 306.442 275.561 306.687 275.395C306.932 275.229 307.055 274.984 307.055 274.659V274.599C307.055 273.97 306.856 273.482 306.458 273.138C306.067 272.793 305.511 272.621 304.788 272.621C304.026 272.621 303.419 272.79 302.968 273.128C302.518 273.459 302.219 273.877 302.074 274.381L298.156 274.062C298.355 273.134 298.746 272.332 299.329 271.656C299.913 270.973 300.665 270.45 301.586 270.085C302.514 269.714 303.588 269.528 304.808 269.528C305.656 269.528 306.468 269.628 307.244 269.827C308.026 270.026 308.719 270.334 309.322 270.751C309.932 271.169 310.413 271.706 310.764 272.362C311.115 273.012 311.291 273.791 311.291 274.699V285H307.274V282.882H307.154C306.909 283.359 306.581 283.78 306.17 284.145C305.759 284.503 305.265 284.785 304.689 284.99C304.112 285.189 303.446 285.288 302.69 285.288ZM303.903 282.365C304.526 282.365 305.076 282.242 305.554 281.997C306.031 281.745 306.405 281.407 306.677 280.983C306.949 280.559 307.085 280.078 307.085 279.541V277.92C306.952 278.007 306.77 278.086 306.538 278.159C306.313 278.225 306.057 278.288 305.772 278.348C305.487 278.401 305.202 278.451 304.917 278.497C304.632 278.537 304.374 278.573 304.142 278.607C303.645 278.679 303.21 278.795 302.839 278.955C302.468 279.114 302.18 279.329 301.974 279.601C301.769 279.866 301.666 280.197 301.666 280.595C301.666 281.172 301.875 281.613 302.292 281.918C302.717 282.216 303.253 282.365 303.903 282.365ZM318.813 276.17V285H314.577V269.727H318.614V272.422H318.793C319.131 271.534 319.698 270.831 320.493 270.314C321.289 269.79 322.253 269.528 323.387 269.528C324.447 269.528 325.372 269.76 326.161 270.224C326.95 270.688 327.563 271.351 328 272.213C328.438 273.068 328.657 274.089 328.657 275.276V285H324.421V276.031C324.427 275.097 324.189 274.367 323.705 273.844C323.221 273.313 322.555 273.048 321.706 273.048C321.136 273.048 320.632 273.171 320.195 273.416C319.764 273.661 319.426 274.019 319.181 274.49C318.942 274.954 318.819 275.514 318.813 276.17ZM338.896 285.298C337.331 285.298 335.986 284.967 334.859 284.304C333.738 283.634 332.877 282.706 332.273 281.52C331.677 280.333 331.379 278.968 331.379 277.423C331.379 275.859 331.68 274.487 332.283 273.307C332.893 272.12 333.758 271.196 334.879 270.533C335.999 269.863 337.331 269.528 338.876 269.528C340.208 269.528 341.375 269.77 342.376 270.254C343.377 270.738 344.169 271.418 344.752 272.293C345.335 273.168 345.657 274.195 345.717 275.375H341.719C341.607 274.613 341.308 274 340.825 273.536C340.347 273.065 339.721 272.83 338.945 272.83C338.289 272.83 337.716 273.009 337.225 273.366C336.741 273.718 336.363 274.232 336.092 274.908C335.82 275.584 335.684 276.402 335.684 277.364C335.684 278.338 335.817 279.167 336.082 279.849C336.353 280.532 336.735 281.053 337.225 281.411C337.716 281.768 338.289 281.947 338.945 281.947C339.429 281.947 339.863 281.848 340.248 281.649C340.639 281.45 340.96 281.162 341.212 280.784C341.471 280.4 341.64 279.939 341.719 279.402H345.717C345.65 280.569 345.332 281.596 344.762 282.484C344.199 283.366 343.42 284.055 342.425 284.553C341.431 285.05 340.254 285.298 338.896 285.298ZM348.429 285V269.727H352.664V285H348.429ZM350.556 267.759C349.927 267.759 349.386 267.55 348.936 267.132C348.492 266.708 348.27 266.201 348.27 265.611C348.27 265.027 348.492 264.527 348.936 264.109C349.386 263.685 349.927 263.473 350.556 263.473C351.186 263.473 351.723 263.685 352.167 264.109C352.618 264.527 352.843 265.027 352.843 265.611C352.843 266.201 352.618 266.708 352.167 267.132C351.723 267.55 351.186 267.759 350.556 267.759ZM360.293 276.17V285H356.058V269.727H360.094V272.422H360.273C360.612 271.534 361.178 270.831 361.974 270.314C362.769 269.79 363.734 269.528 364.867 269.528C365.928 269.528 366.853 269.76 367.641 270.224C368.43 270.688 369.043 271.351 369.481 272.213C369.918 273.068 370.137 274.089 370.137 275.276V285H365.901V276.031C365.908 275.097 365.669 274.367 365.185 273.844C364.701 273.313 364.035 273.048 363.187 273.048C362.617 273.048 362.113 273.171 361.675 273.416C361.245 273.661 360.906 274.019 360.661 274.49C360.423 274.954 360.3 275.514 360.293 276.17ZM380.356 291.045C378.984 291.045 377.807 290.857 376.826 290.479C375.852 290.107 375.076 289.6 374.5 288.957C373.923 288.314 373.548 287.592 373.376 286.79L377.294 286.263C377.413 286.568 377.602 286.853 377.86 287.118C378.119 287.383 378.46 287.595 378.885 287.754C379.315 287.92 379.839 288.003 380.456 288.003C381.377 288.003 382.136 287.777 382.733 287.327C383.336 286.883 383.637 286.137 383.637 285.089V282.295H383.458C383.273 282.72 382.994 283.121 382.623 283.499C382.252 283.876 381.775 284.185 381.191 284.423C380.608 284.662 379.912 284.781 379.103 284.781C377.957 284.781 376.913 284.516 375.971 283.986C375.037 283.449 374.291 282.63 373.734 281.53C373.184 280.423 372.909 279.024 372.909 277.334C372.909 275.604 373.19 274.159 373.754 272.999C374.317 271.839 375.066 270.97 376.001 270.393C376.942 269.817 377.973 269.528 379.093 269.528C379.949 269.528 380.664 269.674 381.241 269.966C381.818 270.251 382.282 270.609 382.633 271.04C382.991 271.464 383.266 271.882 383.458 272.293H383.618V269.727H387.824V285.149C387.824 286.448 387.505 287.536 386.869 288.411C386.233 289.286 385.351 289.942 384.224 290.379C383.104 290.823 381.815 291.045 380.356 291.045ZM380.446 281.599C381.128 281.599 381.705 281.43 382.176 281.092C382.653 280.748 383.018 280.257 383.27 279.621C383.528 278.978 383.657 278.209 383.657 277.314C383.657 276.419 383.531 275.643 383.279 274.987C383.028 274.324 382.663 273.811 382.186 273.446C381.708 273.081 381.128 272.899 380.446 272.899C379.75 272.899 379.163 273.088 378.686 273.466C378.208 273.837 377.847 274.354 377.602 275.017C377.357 275.68 377.234 276.446 377.234 277.314C377.234 278.196 377.357 278.958 377.602 279.601C377.854 280.237 378.215 280.731 378.686 281.082C379.163 281.427 379.75 281.599 380.446 281.599Z" fill="black" fill-opacity="0.7"/>
<path d="M235.77 247V226.636H243.923C245.421 226.636 246.671 226.858 247.672 227.303C248.673 227.747 249.425 228.363 249.929 229.152C250.433 229.934 250.685 230.836 250.685 231.857C250.685 232.652 250.526 233.351 250.207 233.955C249.889 234.551 249.452 235.042 248.895 235.426C248.345 235.804 247.715 236.072 247.006 236.232V236.43C247.781 236.464 248.507 236.682 249.183 237.087C249.866 237.491 250.42 238.058 250.844 238.787C251.268 239.509 251.48 240.371 251.48 241.372C251.48 242.453 251.212 243.417 250.675 244.266C250.144 245.107 249.359 245.774 248.318 246.264C247.277 246.755 245.995 247 244.47 247H235.77ZM240.075 243.48H243.585C244.785 243.48 245.66 243.251 246.21 242.794C246.76 242.33 247.036 241.714 247.036 240.945C247.036 240.381 246.9 239.884 246.628 239.453C246.356 239.022 245.968 238.684 245.464 238.439C244.967 238.194 244.374 238.071 243.685 238.071H240.075V243.48ZM240.075 235.158H243.267C243.857 235.158 244.381 235.055 244.838 234.849C245.302 234.637 245.667 234.339 245.932 233.955C246.204 233.57 246.339 233.109 246.339 232.572C246.339 231.837 246.078 231.243 245.554 230.793C245.037 230.342 244.301 230.116 243.347 230.116H240.075V235.158ZM258.438 226.636V247H254.202V226.636H258.438ZM268.732 247.298C267.187 247.298 265.851 246.97 264.724 246.314C263.604 245.651 262.739 244.73 262.129 243.55C261.519 242.363 261.214 240.988 261.214 239.423C261.214 237.846 261.519 236.467 262.129 235.287C262.739 234.1 263.604 233.179 264.724 232.523C265.851 231.86 267.187 231.528 268.732 231.528C270.276 231.528 271.608 231.86 272.729 232.523C273.856 233.179 274.724 234.1 275.334 235.287C275.944 236.467 276.249 237.846 276.249 239.423C276.249 240.988 275.944 242.363 275.334 243.55C274.724 244.73 273.856 245.651 272.729 246.314C271.608 246.97 270.276 247.298 268.732 247.298ZM268.751 244.017C269.454 244.017 270.041 243.818 270.511 243.42C270.982 243.016 271.337 242.466 271.575 241.77C271.821 241.074 271.943 240.282 271.943 239.393C271.943 238.505 271.821 237.713 271.575 237.017C271.337 236.321 270.982 235.771 270.511 235.366C270.041 234.962 269.454 234.76 268.751 234.76C268.042 234.76 267.446 234.962 266.962 235.366C266.484 235.771 266.123 236.321 265.878 237.017C265.639 237.713 265.52 238.505 265.52 239.393C265.52 240.282 265.639 241.074 265.878 241.77C266.123 242.466 266.484 243.016 266.962 243.42C267.446 243.818 268.042 244.017 268.751 244.017ZM285.903 247.298C284.339 247.298 282.993 246.967 281.866 246.304C280.746 245.634 279.884 244.706 279.281 243.52C278.685 242.333 278.386 240.968 278.386 239.423C278.386 237.859 278.688 236.487 279.291 235.307C279.901 234.12 280.766 233.196 281.886 232.533C283.007 231.863 284.339 231.528 285.884 231.528C287.216 231.528 288.383 231.77 289.384 232.254C290.384 232.738 291.177 233.418 291.76 234.293C292.343 235.168 292.665 236.195 292.724 237.375H288.727C288.615 236.613 288.316 236 287.832 235.536C287.355 235.065 286.729 234.83 285.953 234.83C285.297 234.83 284.723 235.009 284.233 235.366C283.749 235.718 283.371 236.232 283.099 236.908C282.828 237.584 282.692 238.402 282.692 239.364C282.692 240.338 282.824 241.167 283.089 241.849C283.361 242.532 283.742 243.053 284.233 243.411C284.723 243.768 285.297 243.947 285.953 243.947C286.437 243.947 286.871 243.848 287.256 243.649C287.647 243.45 287.968 243.162 288.22 242.784C288.479 242.4 288.648 241.939 288.727 241.402H292.724C292.658 242.569 292.34 243.596 291.77 244.484C291.206 245.366 290.428 246.055 289.433 246.553C288.439 247.05 287.262 247.298 285.903 247.298ZM299.275 242.605L299.284 237.524H299.901L304.793 231.727H309.655L303.083 239.403H302.078L299.275 242.605ZM295.436 247V226.636H299.672V247H295.436ZM304.982 247L300.488 240.348L303.311 237.355L309.944 247H304.982ZM318.005 247.298C316.441 247.298 315.095 246.967 313.968 246.304C312.848 245.634 311.986 244.706 311.383 243.52C310.786 242.333 310.488 240.968 310.488 239.423C310.488 237.859 310.79 236.487 311.393 235.307C312.003 234.12 312.868 233.196 313.988 232.533C315.108 231.863 316.441 231.528 317.985 231.528C319.317 231.528 320.484 231.77 321.485 232.254C322.486 232.738 323.278 233.418 323.862 234.293C324.445 235.168 324.766 236.195 324.826 237.375H320.829C320.716 236.613 320.418 236 319.934 235.536C319.457 235.065 318.83 234.83 318.055 234.83C317.398 234.83 316.825 235.009 316.335 235.366C315.851 235.718 315.473 236.232 315.201 236.908C314.929 237.584 314.793 238.402 314.793 239.364C314.793 240.338 314.926 241.167 315.191 241.849C315.463 242.532 315.844 243.053 316.335 243.411C316.825 243.768 317.398 243.947 318.055 243.947C318.539 243.947 318.973 243.848 319.357 243.649C319.748 243.45 320.07 243.162 320.322 242.784C320.58 242.4 320.749 241.939 320.829 241.402H324.826C324.76 242.569 324.442 243.596 323.871 244.484C323.308 245.366 322.529 246.055 321.535 246.553C320.54 247.05 319.364 247.298 318.005 247.298ZM331.774 238.17V247H327.538V226.636H331.654V234.422H331.833C332.178 233.52 332.735 232.814 333.504 232.304C334.273 231.787 335.237 231.528 336.397 231.528C337.458 231.528 338.383 231.76 339.172 232.224C339.967 232.682 340.583 233.341 341.021 234.203C341.465 235.058 341.684 236.082 341.677 237.276V247H337.441V238.031C337.448 237.09 337.209 236.357 336.725 235.834C336.248 235.31 335.579 235.048 334.717 235.048C334.14 235.048 333.63 235.171 333.186 235.416C332.748 235.661 332.404 236.019 332.152 236.49C331.906 236.954 331.78 237.514 331.774 238.17ZM349.366 247.288C348.391 247.288 347.523 247.119 346.761 246.781C345.998 246.437 345.395 245.929 344.951 245.26C344.513 244.584 344.295 243.742 344.295 242.734C344.295 241.886 344.451 241.173 344.762 240.597C345.074 240.02 345.498 239.556 346.035 239.205C346.572 238.853 347.182 238.588 347.864 238.409C348.554 238.23 349.276 238.104 350.032 238.031C350.92 237.938 351.636 237.852 352.18 237.773C352.723 237.687 353.118 237.561 353.363 237.395C353.608 237.229 353.731 236.984 353.731 236.659V236.599C353.731 235.97 353.532 235.482 353.134 235.138C352.743 234.793 352.186 234.621 351.464 234.621C350.701 234.621 350.095 234.79 349.644 235.128C349.193 235.459 348.895 235.877 348.749 236.381L344.832 236.062C345.031 235.134 345.422 234.332 346.005 233.656C346.588 232.973 347.341 232.45 348.262 232.085C349.19 231.714 350.264 231.528 351.484 231.528C352.332 231.528 353.144 231.628 353.92 231.827C354.702 232.026 355.395 232.334 355.998 232.751C356.608 233.169 357.088 233.706 357.44 234.362C357.791 235.012 357.967 235.791 357.967 236.699V247H353.95V244.882H353.83C353.585 245.359 353.257 245.78 352.846 246.145C352.435 246.503 351.941 246.785 351.364 246.99C350.788 247.189 350.121 247.288 349.366 247.288ZM350.579 244.365C351.202 244.365 351.752 244.242 352.229 243.997C352.707 243.745 353.081 243.407 353.353 242.983C353.625 242.559 353.761 242.078 353.761 241.541V239.92C353.628 240.007 353.446 240.086 353.214 240.159C352.988 240.225 352.733 240.288 352.448 240.348C352.163 240.401 351.878 240.451 351.593 240.497C351.308 240.537 351.049 240.573 350.817 240.607C350.32 240.679 349.886 240.795 349.515 240.955C349.144 241.114 348.855 241.329 348.65 241.601C348.444 241.866 348.342 242.197 348.342 242.595C348.342 243.172 348.55 243.613 348.968 243.918C349.392 244.216 349.929 244.365 350.579 244.365ZM361.253 247V231.727H365.489V247H361.253ZM363.381 229.759C362.751 229.759 362.211 229.55 361.76 229.132C361.316 228.708 361.094 228.201 361.094 227.611C361.094 227.027 361.316 226.527 361.76 226.109C362.211 225.685 362.751 225.473 363.381 225.473C364.01 225.473 364.547 225.685 364.991 226.109C365.442 226.527 365.668 227.027 365.668 227.611C365.668 228.201 365.442 228.708 364.991 229.132C364.547 229.55 364.01 229.759 363.381 229.759ZM373.118 238.17V247H368.882V231.727H372.919V234.422H373.098C373.436 233.534 374.002 232.831 374.798 232.314C375.593 231.79 376.558 231.528 377.691 231.528C378.752 231.528 379.677 231.76 380.466 232.224C381.254 232.688 381.868 233.351 382.305 234.213C382.743 235.068 382.961 236.089 382.961 237.276V247H378.725V238.031C378.732 237.097 378.493 236.367 378.01 235.844C377.526 235.313 376.859 235.048 376.011 235.048C375.441 235.048 374.937 235.171 374.5 235.416C374.069 235.661 373.731 236.019 373.485 236.49C373.247 236.954 373.124 237.514 373.118 238.17Z" fill="black"/>
<path d="M234.994 193.186V189.636H251.719V193.186H245.484V210H241.229V193.186H234.994ZM259.079 210.298C257.535 210.298 256.199 209.97 255.072 209.314C253.952 208.651 253.087 207.73 252.477 206.55C251.867 205.363 251.562 203.988 251.562 202.423C251.562 200.846 251.867 199.467 252.477 198.287C253.087 197.1 253.952 196.179 255.072 195.523C256.199 194.86 257.535 194.528 259.079 194.528C260.624 194.528 261.956 194.86 263.076 195.523C264.203 196.179 265.072 197.1 265.681 198.287C266.291 199.467 266.596 200.846 266.596 202.423C266.596 203.988 266.291 205.363 265.681 206.55C265.072 207.73 264.203 208.651 263.076 209.314C261.956 209.97 260.624 210.298 259.079 210.298ZM259.099 207.017C259.802 207.017 260.388 206.818 260.859 206.42C261.33 206.016 261.684 205.466 261.923 204.77C262.168 204.074 262.291 203.282 262.291 202.393C262.291 201.505 262.168 200.713 261.923 200.017C261.684 199.321 261.33 198.771 260.859 198.366C260.388 197.962 259.802 197.76 259.099 197.76C258.39 197.76 257.793 197.962 257.309 198.366C256.832 198.771 256.471 199.321 256.225 200.017C255.987 200.713 255.868 201.505 255.868 202.393C255.868 203.282 255.987 204.074 256.225 204.77C256.471 205.466 256.832 206.016 257.309 206.42C257.793 206.818 258.39 207.017 259.099 207.017ZM273.189 205.605L273.199 200.524H273.815L278.707 194.727H283.569L276.997 202.403H275.993L273.189 205.605ZM269.35 210V189.636H273.586V210H269.35ZM278.896 210L274.402 203.348L277.225 200.355L283.858 210H278.896ZM291.979 210.298C290.408 210.298 289.055 209.98 287.922 209.344C286.795 208.701 285.927 207.793 285.317 206.619C284.707 205.439 284.402 204.044 284.402 202.433C284.402 200.862 284.707 199.483 285.317 198.297C285.927 197.11 286.785 196.186 287.892 195.523C289.006 194.86 290.312 194.528 291.81 194.528C292.817 194.528 293.755 194.691 294.624 195.016C295.499 195.334 296.261 195.814 296.911 196.457C297.567 197.1 298.077 197.909 298.442 198.884C298.806 199.851 298.989 200.985 298.989 202.284V203.447H286.092V200.822H295.001C295.001 200.213 294.869 199.672 294.604 199.202C294.339 198.731 293.971 198.363 293.5 198.098C293.036 197.826 292.496 197.69 291.879 197.69C291.236 197.69 290.666 197.839 290.169 198.138C289.679 198.429 289.294 198.824 289.016 199.321C288.737 199.812 288.595 200.358 288.588 200.962V203.457C288.588 204.213 288.727 204.866 289.006 205.416C289.291 205.966 289.692 206.391 290.209 206.689C290.726 206.987 291.339 207.136 292.048 207.136C292.519 207.136 292.95 207.07 293.341 206.938C293.732 206.805 294.067 206.606 294.345 206.341C294.624 206.076 294.836 205.751 294.982 205.366L298.899 205.625C298.7 206.566 298.293 207.388 297.676 208.091C297.066 208.787 296.277 209.33 295.31 209.722C294.348 210.106 293.238 210.298 291.979 210.298ZM305.989 201.17V210H301.753V194.727H305.79V197.422H305.969C306.307 196.534 306.874 195.831 307.669 195.314C308.464 194.79 309.429 194.528 310.562 194.528C311.623 194.528 312.548 194.76 313.337 195.224C314.125 195.688 314.739 196.351 315.176 197.213C315.614 198.068 315.832 199.089 315.832 200.276V210H311.597V201.031C311.603 200.097 311.365 199.367 310.881 198.844C310.397 198.313 309.731 198.048 308.882 198.048C308.312 198.048 307.808 198.171 307.371 198.416C306.94 198.661 306.602 199.019 306.357 199.49C306.118 199.954 305.995 200.514 305.989 201.17Z" fill="black" fill-opacity="0.7"/>
<line x1="234" y1="252" x2="381" y2="252" stroke="black" stroke-width="2"/>
<path d="M203.074 40.0909V42.3636H196.341V40.0909H203.074ZM197.882 51V39.3026C197.882 38.5118 198.036 37.8561 198.344 37.3352C198.656 36.8144 199.082 36.4238 199.622 36.1634C200.162 35.9029 200.775 35.7727 201.462 35.7727C201.926 35.7727 202.349 35.8082 202.733 35.8793C203.121 35.9503 203.41 36.0142 203.599 36.071L203.06 38.3438C202.941 38.3059 202.795 38.2704 202.619 38.2372C202.449 38.2041 202.274 38.1875 202.094 38.1875C201.649 38.1875 201.339 38.2917 201.163 38.5C200.988 38.7036 200.901 38.9901 200.901 39.3594V51H197.882ZM204.922 51V40.0909H207.948V51H204.922ZM206.442 38.6847C205.992 38.6847 205.606 38.5355 205.284 38.2372C204.967 37.9342 204.809 37.572 204.809 37.1506C204.809 36.7339 204.967 36.3764 205.284 36.0781C205.606 35.7751 205.992 35.6236 206.442 35.6236C206.892 35.6236 207.275 35.7751 207.593 36.0781C207.915 36.3764 208.076 36.7339 208.076 37.1506C208.076 37.572 207.915 37.9342 207.593 38.2372C207.275 38.5355 206.892 38.6847 206.442 38.6847ZM215.3 51.2131C214.183 51.2131 213.222 50.9763 212.417 50.5028C211.617 50.0246 211.001 49.3617 210.57 48.5142C210.144 47.6667 209.931 46.6913 209.931 45.5881C209.931 44.4706 210.147 43.4905 210.577 42.6477C211.013 41.8002 211.631 41.1397 212.431 40.6662C213.231 40.188 214.183 39.9489 215.286 39.9489C216.238 39.9489 217.071 40.1217 217.786 40.4673C218.501 40.813 219.067 41.2983 219.484 41.9233C219.9 42.5483 220.13 43.2822 220.173 44.125H217.317C217.237 43.5805 217.024 43.1425 216.678 42.8111C216.337 42.4749 215.89 42.3068 215.336 42.3068C214.867 42.3068 214.458 42.4347 214.107 42.6903C213.762 42.9413 213.492 43.3082 213.298 43.7912C213.103 44.2741 213.006 44.8589 213.006 45.5455C213.006 46.2415 213.101 46.8333 213.29 47.321C213.485 47.8087 213.757 48.1804 214.107 48.4361C214.458 48.6918 214.867 48.8196 215.336 48.8196C215.682 48.8196 215.992 48.7486 216.266 48.6065C216.546 48.4645 216.775 48.2585 216.955 47.9886C217.14 47.714 217.261 47.3849 217.317 47.0014H220.173C220.125 47.8348 219.898 48.5687 219.491 49.2031C219.088 49.8329 218.532 50.3253 217.822 50.6804C217.112 51.0355 216.271 51.2131 215.3 51.2131ZM225.135 44.6932V51H222.11V36.4545H225.05V42.0156H225.178C225.424 41.3717 225.822 40.8674 226.371 40.5028C226.92 40.1335 227.609 39.9489 228.438 39.9489C229.195 39.9489 229.856 40.1146 230.419 40.446C230.988 40.7727 231.428 41.2438 231.74 41.8594C232.058 42.4702 232.214 43.2017 232.209 44.054V51H229.184V44.5938C229.188 43.9214 229.018 43.3982 228.672 43.0241C228.331 42.6501 227.853 42.4631 227.238 42.4631C226.826 42.4631 226.461 42.5507 226.144 42.7259C225.831 42.901 225.585 43.1567 225.405 43.4929C225.23 43.8243 225.14 44.2244 225.135 44.6932ZM237.701 51.206C237.005 51.206 236.385 51.0852 235.84 50.8438C235.296 50.5975 234.865 50.2353 234.548 49.7571C234.235 49.2741 234.079 48.6728 234.079 47.9531C234.079 47.3471 234.19 46.8381 234.413 46.4261C234.635 46.0142 234.938 45.6828 235.322 45.4318C235.705 45.1809 236.141 44.9915 236.629 44.8636C237.121 44.7358 237.637 44.6458 238.177 44.5938C238.811 44.5275 239.323 44.4659 239.711 44.4091C240.099 44.3475 240.381 44.2576 240.556 44.1392C240.731 44.0208 240.819 43.8456 240.819 43.6136V43.571C240.819 43.1212 240.677 42.7732 240.393 42.527C240.113 42.2808 239.716 42.1577 239.2 42.1577C238.655 42.1577 238.222 42.2784 237.9 42.5199C237.578 42.7566 237.365 43.0549 237.261 43.4148L234.462 43.1875C234.604 42.5246 234.884 41.9517 235.3 41.4688C235.717 40.9811 236.254 40.607 236.913 40.3466C237.576 40.0814 238.343 39.9489 239.214 39.9489C239.82 39.9489 240.4 40.0199 240.954 40.1619C241.513 40.304 242.007 40.5241 242.438 40.8224C242.874 41.1207 243.217 41.5043 243.468 41.973C243.719 42.437 243.844 42.9934 243.844 43.642V51H240.975V49.4872H240.89C240.715 49.8281 240.48 50.1288 240.187 50.3892C239.893 50.6449 239.54 50.8461 239.129 50.9929C238.717 51.1349 238.241 51.206 237.701 51.206ZM238.567 49.1179C239.013 49.1179 239.406 49.0303 239.746 48.8551C240.087 48.6752 240.355 48.4337 240.549 48.1307C240.743 47.8277 240.84 47.4844 240.84 47.1009V45.9432C240.746 46.0047 240.615 46.0616 240.45 46.1136C240.289 46.161 240.106 46.206 239.903 46.2486C239.699 46.2865 239.496 46.322 239.292 46.3551C239.088 46.3835 238.904 46.4096 238.738 46.4332C238.383 46.4853 238.073 46.5682 237.808 46.6818C237.542 46.7955 237.336 46.9493 237.19 47.1435C237.043 47.3329 236.969 47.5696 236.969 47.8537C236.969 48.2656 237.119 48.5805 237.417 48.7983C237.72 49.0114 238.103 49.1179 238.567 49.1179ZM246.192 51V40.0909H249.217V51H246.192ZM247.712 38.6847C247.262 38.6847 246.876 38.5355 246.554 38.2372C246.237 37.9342 246.078 37.572 246.078 37.1506C246.078 36.7339 246.237 36.3764 246.554 36.0781C246.876 35.7751 247.262 35.6236 247.712 35.6236C248.161 35.6236 248.545 35.7751 248.862 36.0781C249.184 36.3764 249.345 36.7339 249.345 37.1506C249.345 37.572 249.184 37.9342 248.862 38.2372C248.545 38.5355 248.161 38.6847 247.712 38.6847ZM254.667 44.6932V51H251.641V40.0909H254.525V42.0156H254.652C254.894 41.3812 255.299 40.8793 255.867 40.5099C256.435 40.1359 257.124 39.9489 257.934 39.9489C258.691 39.9489 259.352 40.1146 259.915 40.446C260.479 40.7775 260.917 41.2509 261.229 41.8665C261.542 42.4773 261.698 43.2064 261.698 44.054V51H258.672V44.5938C258.677 43.9261 258.507 43.4053 258.161 43.0312C257.815 42.6525 257.339 42.4631 256.733 42.4631C256.326 42.4631 255.966 42.5507 255.654 42.7259C255.346 42.901 255.105 43.1567 254.929 43.4929C254.759 43.8243 254.671 44.2244 254.667 44.6932ZM265.851 51.1847C265.382 51.1847 264.98 51.0189 264.643 50.6875C264.312 50.3513 264.146 49.9489 264.146 49.4801C264.146 49.0161 264.312 48.6184 264.643 48.2869C264.98 47.9555 265.382 47.7898 265.851 47.7898C266.305 47.7898 266.703 47.9555 267.044 48.2869C267.385 48.6184 267.555 49.0161 267.555 49.4801C267.555 49.7926 267.475 50.0791 267.314 50.3395C267.158 50.5952 266.952 50.8011 266.696 50.9574C266.44 51.1089 266.159 51.1847 265.851 51.1847Z" fill="black"/>
<path d="M543.057 48V39.2727H548.324V40.2102H544.114V43.1591H548.051V44.0966H544.114V47.0625H548.392V48H543.057ZM550.842 41.4545L552.411 44.1307L553.979 41.4545H555.138L553.024 44.7273L555.138 48H553.979L552.411 45.4602L550.842 48H549.683L551.763 44.7273L549.683 41.4545H550.842ZM556.573 50.4545V41.4545H557.544V42.4943H557.664C557.738 42.3807 557.84 42.2358 557.971 42.0597C558.104 41.8807 558.294 41.7216 558.542 41.5824C558.792 41.4403 559.13 41.3693 559.556 41.3693C560.107 41.3693 560.593 41.5071 561.013 41.7827C561.434 42.0582 561.762 42.4489 561.998 42.9545C562.233 43.4602 562.351 44.0568 562.351 44.7443C562.351 45.4375 562.233 46.0384 561.998 46.5469C561.762 47.0526 561.435 47.4446 561.017 47.723C560.6 47.9986 560.118 48.1364 559.573 48.1364C559.152 48.1364 558.816 48.0668 558.563 47.9276C558.31 47.7855 558.115 47.625 557.979 47.446C557.843 47.2642 557.738 47.1136 557.664 46.9943H557.578V50.4545H556.573ZM557.561 44.7273C557.561 45.2216 557.634 45.6577 557.779 46.0355C557.924 46.4105 558.135 46.7045 558.414 46.9176C558.692 47.1278 559.033 47.233 559.436 47.233C559.857 47.233 560.208 47.1222 560.489 46.9006C560.773 46.6761 560.986 46.375 561.128 45.9972C561.273 45.6165 561.346 45.1932 561.346 44.7273C561.346 44.267 561.275 43.8523 561.132 43.483C560.993 43.1108 560.782 42.8168 560.498 42.6009C560.216 42.3821 559.863 42.2727 559.436 42.2727C559.027 42.2727 558.684 42.3764 558.405 42.5838C558.127 42.7884 557.917 43.0753 557.775 43.4446C557.632 43.8111 557.561 44.2386 557.561 44.7273ZM564.891 39.2727V48H563.885V39.2727H564.891ZM569.392 48.1364C568.801 48.1364 568.283 47.9957 567.837 47.7145C567.393 47.4332 567.047 47.0398 566.797 46.5341C566.55 46.0284 566.426 45.4375 566.426 44.7614C566.426 44.0795 566.55 43.4844 566.797 42.9759C567.047 42.4673 567.393 42.0724 567.837 41.7912C568.283 41.5099 568.801 41.3693 569.392 41.3693C569.983 41.3693 570.5 41.5099 570.943 41.7912C571.389 42.0724 571.736 42.4673 571.983 42.9759C572.233 43.4844 572.358 44.0795 572.358 44.7614C572.358 45.4375 572.233 46.0284 571.983 46.5341C571.736 47.0398 571.389 47.4332 570.943 47.7145C570.5 47.9957 569.983 48.1364 569.392 48.1364ZM569.392 47.233C569.841 47.233 570.21 47.1179 570.5 46.8878C570.79 46.6577 571.004 46.3551 571.143 45.9801C571.283 45.6051 571.352 45.1989 571.352 44.7614C571.352 44.3239 571.283 43.9162 571.143 43.5384C571.004 43.1605 570.79 42.8551 570.5 42.6222C570.21 42.3892 569.841 42.2727 569.392 42.2727C568.943 42.2727 568.574 42.3892 568.284 42.6222C567.994 42.8551 567.78 43.1605 567.641 43.5384C567.501 43.9162 567.432 44.3239 567.432 44.7614C567.432 45.1989 567.501 45.6051 567.641 45.9801C567.78 46.3551 567.994 46.6577 568.284 46.8878C568.574 47.1179 568.943 47.233 569.392 47.233ZM573.893 48V41.4545H574.865V42.4432H574.933C575.052 42.1193 575.268 41.8565 575.581 41.6548C575.893 41.4531 576.245 41.3523 576.637 41.3523C576.711 41.3523 576.804 41.3537 576.914 41.3565C577.025 41.3594 577.109 41.3636 577.166 41.3693V42.392C577.132 42.3835 577.054 42.3707 576.931 42.3537C576.812 42.3338 576.686 42.3239 576.552 42.3239C576.234 42.3239 575.95 42.3906 575.7 42.5241C575.453 42.6548 575.257 42.8366 575.112 43.0696C574.97 43.2997 574.899 43.5625 574.899 43.858V48H573.893ZM580.903 48.1364C580.272 48.1364 579.728 47.9972 579.271 47.7188C578.816 47.4375 578.466 47.0455 578.218 46.5426C577.974 46.0369 577.852 45.4489 577.852 44.7784C577.852 44.108 577.974 43.517 578.218 43.0057C578.466 42.4915 578.809 42.0909 579.25 41.804C579.693 41.5142 580.21 41.3693 580.801 41.3693C581.142 41.3693 581.478 41.4261 581.811 41.5398C582.143 41.6534 582.446 41.8381 582.718 42.0938C582.991 42.3466 583.208 42.6818 583.37 43.0994C583.532 43.517 583.613 44.0312 583.613 44.642V45.0682H578.568V44.1989H582.591C582.591 43.8295 582.517 43.5 582.369 43.2102C582.224 42.9205 582.017 42.6918 581.747 42.5241C581.48 42.3565 581.164 42.2727 580.801 42.2727C580.4 42.2727 580.054 42.3722 579.761 42.571C579.471 42.767 579.248 43.0227 579.092 43.3381C578.936 43.6534 578.858 43.9915 578.858 44.3523V44.9318C578.858 45.4261 578.943 45.8452 579.113 46.1889C579.287 46.5298 579.527 46.7898 579.833 46.9688C580.14 47.1449 580.497 47.233 580.903 47.233C581.167 47.233 581.406 47.196 581.619 47.1222C581.835 47.0455 582.021 46.9318 582.177 46.7812C582.333 46.6278 582.454 46.4375 582.539 46.2102L583.511 46.483C583.409 46.8125 583.237 47.1023 582.995 47.3523C582.754 47.5994 582.456 47.7926 582.1 47.9318C581.745 48.0682 581.346 48.1364 580.903 48.1364Z" fill="black"/>
<path d="M606.057 48V39.2727H611.324V40.2102H607.114V43.1591H611.051V44.0966H607.114V47.0625H611.392V48H606.057ZM614.098 44.0625V48H613.092V41.4545H614.064V42.4773H614.149C614.303 42.1449 614.536 41.8778 614.848 41.6761C615.161 41.4716 615.564 41.3693 616.058 41.3693C616.501 41.3693 616.889 41.4602 617.222 41.642C617.554 41.821 617.813 42.0938 617.997 42.4602C618.182 42.8239 618.274 43.2841 618.274 43.8409V48H617.268V43.9091C617.268 43.3949 617.135 42.9943 616.868 42.7074C616.601 42.4176 616.234 42.2727 615.768 42.2727C615.447 42.2727 615.161 42.3423 614.908 42.4815C614.658 42.6207 614.46 42.8239 614.315 43.0909C614.17 43.358 614.098 43.6818 614.098 44.0625ZM622.754 50.5909C622.268 50.5909 621.85 50.5284 621.501 50.4034C621.152 50.2812 620.86 50.1193 620.627 49.9176C620.397 49.7188 620.214 49.5057 620.078 49.2784L620.879 48.7159C620.97 48.8352 621.085 48.9716 621.224 49.125C621.363 49.2812 621.554 49.4162 621.795 49.5298C622.039 49.6463 622.359 49.7045 622.754 49.7045C623.282 49.7045 623.718 49.5767 624.062 49.321C624.406 49.0653 624.578 48.6648 624.578 48.1193V46.7898H624.493C624.419 46.9091 624.314 47.0568 624.177 47.233C624.044 47.4062 623.85 47.5611 623.598 47.6974C623.348 47.831 623.01 47.8977 622.583 47.8977C622.055 47.8977 621.581 47.7727 621.16 47.5227C620.743 47.2727 620.412 46.9091 620.167 46.4318C619.926 45.9545 619.805 45.375 619.805 44.6932C619.805 44.0227 619.923 43.4389 620.159 42.9418C620.395 42.4418 620.723 42.0554 621.143 41.7827C621.564 41.5071 622.049 41.3693 622.6 41.3693C623.027 41.3693 623.365 41.4403 623.615 41.5824C623.868 41.7216 624.061 41.8807 624.194 42.0597C624.331 42.2358 624.436 42.3807 624.51 42.4943H624.612V41.4545H625.583V48.1875C625.583 48.75 625.456 49.2074 625.2 49.5597C624.947 49.9148 624.606 50.1747 624.177 50.3395C623.751 50.5071 623.277 50.5909 622.754 50.5909ZM622.72 46.9943C623.123 46.9943 623.464 46.902 623.743 46.7173C624.021 46.5327 624.233 46.267 624.377 45.9205C624.522 45.5739 624.595 45.1591 624.595 44.6761C624.595 44.2045 624.524 43.7884 624.382 43.4276C624.24 43.0668 624.029 42.7841 623.751 42.5795C623.473 42.375 623.129 42.2727 622.72 42.2727C622.294 42.2727 621.939 42.3807 621.654 42.5966C621.373 42.8125 621.162 43.1023 621.02 43.4659C620.88 43.8295 620.811 44.233 620.811 44.6761C620.811 45.1307 620.882 45.5327 621.024 45.8821C621.169 46.2287 621.382 46.5014 621.663 46.7003C621.947 46.8963 622.299 46.9943 622.72 46.9943ZM628.43 39.2727V48H627.424V39.2727H628.43ZM630.272 48V41.4545H631.278V48H630.272ZM630.783 40.3636C630.587 40.3636 630.418 40.2969 630.276 40.1634C630.137 40.0298 630.067 39.8693 630.067 39.6818C630.067 39.4943 630.137 39.3338 630.276 39.2003C630.418 39.0668 630.587 39 630.783 39C630.979 39 631.147 39.0668 631.286 39.2003C631.428 39.3338 631.499 39.4943 631.499 39.6818C631.499 39.8693 631.428 40.0298 631.286 40.1634C631.147 40.2969 630.979 40.3636 630.783 40.3636ZM637.756 42.9205L636.853 43.1761C636.796 43.0256 636.712 42.8793 636.601 42.7372C636.493 42.5923 636.346 42.473 636.158 42.3793C635.971 42.2855 635.73 42.2386 635.438 42.2386C635.037 42.2386 634.703 42.331 634.436 42.5156C634.172 42.6974 634.04 42.929 634.04 43.2102C634.04 43.4602 634.131 43.6577 634.313 43.8026C634.495 43.9474 634.779 44.0682 635.165 44.1648L636.137 44.4034C636.722 44.5455 637.158 44.7628 637.445 45.0554C637.732 45.3452 637.875 45.7187 637.875 46.1761C637.875 46.5511 637.767 46.8864 637.551 47.1818C637.338 47.4773 637.04 47.7102 636.657 47.8807C636.273 48.0511 635.827 48.1364 635.319 48.1364C634.651 48.1364 634.098 47.9915 633.661 47.7017C633.223 47.4119 632.946 46.9886 632.83 46.4318L633.784 46.1932C633.875 46.5455 634.047 46.8097 634.3 46.9858C634.556 47.1619 634.89 47.25 635.301 47.25C635.77 47.25 636.142 47.1506 636.418 46.9517C636.696 46.75 636.836 46.5085 636.836 46.2273C636.836 46 636.756 45.8097 636.597 45.6562C636.438 45.5 636.194 45.3835 635.864 45.3068L634.773 45.0511C634.174 44.9091 633.733 44.6889 633.452 44.3906C633.174 44.0895 633.034 43.7131 633.034 43.2614C633.034 42.892 633.138 42.5653 633.346 42.2812C633.556 41.9972 633.841 41.7741 634.202 41.6122C634.566 41.4503 634.978 41.3693 635.438 41.3693C636.086 41.3693 636.594 41.5114 636.963 41.7955C637.336 42.0795 637.6 42.4545 637.756 42.9205ZM640.395 44.0625V48H639.389V39.2727H640.395V42.4773H640.48C640.634 42.1392 640.864 41.8707 641.17 41.6719C641.48 41.4702 641.892 41.3693 642.406 41.3693C642.852 41.3693 643.243 41.4588 643.578 41.6378C643.913 41.8139 644.173 42.0852 644.358 42.4517C644.545 42.8153 644.639 43.2784 644.639 43.8409V48H643.634V43.9091C643.634 43.3892 643.499 42.9872 643.229 42.7031C642.962 42.4162 642.591 42.2727 642.116 42.2727C641.787 42.2727 641.491 42.3423 641.23 42.4815C640.972 42.6207 640.767 42.8239 640.616 43.0909C640.469 43.358 640.395 43.6818 640.395 44.0625Z" fill="black"/>
<path d="M478.057 48V39.2727H481.108C481.716 39.2727 482.217 39.3778 482.612 39.5881C483.007 39.7955 483.301 40.0753 483.494 40.4276C483.688 40.777 483.784 41.1648 483.784 41.5909C483.784 41.9659 483.717 42.2756 483.584 42.5199C483.453 42.7642 483.28 42.9574 483.064 43.0994C482.851 43.2415 482.619 43.3466 482.369 43.4148V43.5C482.636 43.517 482.905 43.6108 483.175 43.7812C483.445 43.9517 483.67 44.196 483.852 44.5142C484.034 44.8324 484.125 45.2216 484.125 45.6818C484.125 46.1193 484.026 46.5128 483.827 46.8622C483.628 47.2116 483.314 47.4886 482.885 47.6932C482.456 47.8977 481.898 48 481.21 48H478.057ZM479.114 47.0625H481.21C481.901 47.0625 482.391 46.929 482.68 46.6619C482.973 46.392 483.119 46.0653 483.119 45.6818C483.119 45.3864 483.044 45.1136 482.893 44.8636C482.743 44.6108 482.528 44.4091 482.25 44.2585C481.972 44.1051 481.642 44.0284 481.261 44.0284H479.114V47.0625ZM479.114 43.108H481.074C481.392 43.108 481.679 43.0455 481.935 42.9205C482.193 42.7955 482.398 42.6193 482.548 42.392C482.702 42.1648 482.778 41.8977 482.778 41.5909C482.778 41.2074 482.645 40.8821 482.378 40.6151C482.111 40.3452 481.688 40.2102 481.108 40.2102H479.114V43.108ZM489.85 45.3239V41.4545H490.856V48H489.85V46.892H489.782C489.629 47.2244 489.39 47.5071 489.066 47.7401C488.742 47.9702 488.333 48.0852 487.839 48.0852C487.43 48.0852 487.066 47.9957 486.748 47.8168C486.43 47.6349 486.18 47.3622 485.998 46.9986C485.816 46.6321 485.725 46.1705 485.725 45.6136V41.4545H486.731V45.5455C486.731 46.0227 486.864 46.4034 487.131 46.6875C487.401 46.9716 487.745 47.1136 488.163 47.1136C488.413 47.1136 488.667 47.0497 488.925 46.9219C489.187 46.794 489.406 46.598 489.582 46.3338C489.761 46.0696 489.85 45.733 489.85 45.3239ZM497.334 42.9205L496.431 43.1761C496.374 43.0256 496.29 42.8793 496.179 42.7372C496.071 42.5923 495.924 42.473 495.736 42.3793C495.549 42.2855 495.309 42.2386 495.016 42.2386C494.615 42.2386 494.282 42.331 494.015 42.5156C493.75 42.6974 493.618 42.929 493.618 43.2102C493.618 43.4602 493.709 43.6577 493.891 43.8026C494.073 43.9474 494.357 44.0682 494.743 44.1648L495.715 44.4034C496.3 44.5455 496.736 44.7628 497.023 45.0554C497.31 45.3452 497.453 45.7187 497.453 46.1761C497.453 46.5511 497.346 46.8864 497.13 47.1818C496.917 47.4773 496.618 47.7102 496.235 47.8807C495.851 48.0511 495.405 48.1364 494.897 48.1364C494.229 48.1364 493.676 47.9915 493.239 47.7017C492.801 47.4119 492.525 46.9886 492.408 46.4318L493.363 46.1932C493.453 46.5455 493.625 46.8097 493.878 46.9858C494.134 47.1619 494.468 47.25 494.88 47.25C495.348 47.25 495.721 47.1506 495.996 46.9517C496.275 46.75 496.414 46.5085 496.414 46.2273C496.414 46 496.334 45.8097 496.175 45.6562C496.016 45.5 495.772 45.3835 495.442 45.3068L494.351 45.0511C493.752 44.9091 493.311 44.6889 493.03 44.3906C492.752 44.0895 492.613 43.7131 492.613 43.2614C492.613 42.892 492.716 42.5653 492.924 42.2812C493.134 41.9972 493.419 41.7741 493.78 41.6122C494.144 41.4503 494.556 41.3693 495.016 41.3693C495.664 41.3693 496.172 41.5114 496.542 41.7955C496.914 42.0795 497.178 42.4545 497.334 42.9205ZM498.967 48V41.4545H499.973V48H498.967ZM499.479 40.3636C499.283 40.3636 499.114 40.2969 498.972 40.1634C498.832 40.0298 498.763 39.8693 498.763 39.6818C498.763 39.4943 498.832 39.3338 498.972 39.2003C499.114 39.0668 499.283 39 499.479 39C499.675 39 499.842 39.0668 499.982 39.2003C500.124 39.3338 500.195 39.4943 500.195 39.6818C500.195 39.8693 500.124 40.0298 499.982 40.1634C499.842 40.2969 499.675 40.3636 499.479 40.3636ZM502.821 44.0625V48H501.815V41.4545H502.787V42.4773H502.872C503.025 42.1449 503.258 41.8778 503.571 41.6761C503.883 41.4716 504.287 41.3693 504.781 41.3693C505.224 41.3693 505.612 41.4602 505.944 41.642C506.277 41.821 506.535 42.0938 506.72 42.4602C506.904 42.8239 506.997 43.2841 506.997 43.8409V48H505.991V43.9091C505.991 43.3949 505.858 42.9943 505.591 42.7074C505.324 42.4176 504.957 42.2727 504.491 42.2727C504.17 42.2727 503.883 42.3423 503.63 42.4815C503.38 42.6207 503.183 42.8239 503.038 43.0909C502.893 43.358 502.821 43.6818 502.821 44.0625ZM511.579 48.1364C510.948 48.1364 510.404 47.9972 509.947 47.7188C509.492 47.4375 509.141 47.0455 508.894 46.5426C508.65 46.0369 508.528 45.4489 508.528 44.7784C508.528 44.108 508.65 43.517 508.894 43.0057C509.141 42.4915 509.485 42.0909 509.925 41.804C510.369 41.5142 510.886 41.3693 511.477 41.3693C511.817 41.3693 512.154 41.4261 512.487 41.5398C512.819 41.6534 513.121 41.8381 513.394 42.0938C513.667 42.3466 513.884 42.6818 514.046 43.0994C514.208 43.517 514.289 44.0312 514.289 44.642V45.0682H509.244V44.1989H513.266C513.266 43.8295 513.192 43.5 513.045 43.2102C512.9 42.9205 512.692 42.6918 512.423 42.5241C512.156 42.3565 511.84 42.2727 511.477 42.2727C511.076 42.2727 510.729 42.3722 510.437 42.571C510.147 42.767 509.924 43.0227 509.768 43.3381C509.612 43.6534 509.533 43.9915 509.533 44.3523V44.9318C509.533 45.4261 509.619 45.8452 509.789 46.1889C509.962 46.5298 510.202 46.7898 510.509 46.9688C510.816 47.1449 511.173 47.233 511.579 47.233C511.843 47.233 512.082 47.196 512.295 47.1222C512.511 47.0455 512.697 46.9318 512.853 46.7812C513.009 46.6278 513.13 46.4375 513.215 46.2102L514.187 46.483C514.085 46.8125 513.913 47.1023 513.671 47.3523C513.43 47.5994 513.131 47.7926 512.776 47.9318C512.421 48.0682 512.022 48.1364 511.579 48.1364ZM520.455 42.9205L519.552 43.1761C519.495 43.0256 519.411 42.8793 519.3 42.7372C519.192 42.5923 519.045 42.473 518.857 42.3793C518.67 42.2855 518.43 42.2386 518.137 42.2386C517.737 42.2386 517.403 42.331 517.136 42.5156C516.871 42.6974 516.739 42.929 516.739 43.2102C516.739 43.4602 516.83 43.6577 517.012 43.8026C517.194 43.9474 517.478 44.0682 517.864 44.1648L518.836 44.4034C519.421 44.5455 519.857 44.7628 520.144 45.0554C520.431 45.3452 520.575 45.7187 520.575 46.1761C520.575 46.5511 520.467 46.8864 520.251 47.1818C520.038 47.4773 519.739 47.7102 519.356 47.8807C518.972 48.0511 518.526 48.1364 518.018 48.1364C517.35 48.1364 516.798 47.9915 516.36 47.7017C515.923 47.4119 515.646 46.9886 515.529 46.4318L516.484 46.1932C516.575 46.5455 516.746 46.8097 516.999 46.9858C517.255 47.1619 517.589 47.25 518.001 47.25C518.469 47.25 518.842 47.1506 519.117 46.9517C519.396 46.75 519.535 46.5085 519.535 46.2273C519.535 46 519.455 45.8097 519.296 45.6562C519.137 45.5 518.893 45.3835 518.563 45.3068L517.472 45.0511C516.873 44.9091 516.433 44.6889 516.151 44.3906C515.873 44.0895 515.734 43.7131 515.734 43.2614C515.734 42.892 515.837 42.5653 516.045 42.2812C516.255 41.9972 516.54 41.7741 516.901 41.6122C517.265 41.4503 517.677 41.3693 518.137 41.3693C518.785 41.3693 519.293 41.5114 519.663 41.7955C520.035 42.0795 520.299 42.4545 520.455 42.9205ZM526.725 42.9205L525.821 43.1761C525.765 43.0256 525.681 42.8793 525.57 42.7372C525.462 42.5923 525.314 42.473 525.127 42.3793C524.939 42.2855 524.699 42.2386 524.407 42.2386C524.006 42.2386 523.672 42.331 523.405 42.5156C523.141 42.6974 523.009 42.929 523.009 43.2102C523.009 43.4602 523.1 43.6577 523.282 43.8026C523.463 43.9474 523.748 44.0682 524.134 44.1648L525.105 44.4034C525.691 44.5455 526.127 44.7628 526.414 45.0554C526.701 45.3452 526.844 45.7187 526.844 46.1761C526.844 46.5511 526.736 46.8864 526.52 47.1818C526.307 47.4773 526.009 47.7102 525.625 47.8807C525.242 48.0511 524.796 48.1364 524.287 48.1364C523.62 48.1364 523.067 47.9915 522.63 47.7017C522.192 47.4119 521.915 46.9886 521.799 46.4318L522.753 46.1932C522.844 46.5455 523.016 46.8097 523.269 46.9858C523.525 47.1619 523.858 47.25 524.27 47.25C524.739 47.25 525.111 47.1506 525.387 46.9517C525.665 46.75 525.804 46.5085 525.804 46.2273C525.804 46 525.725 45.8097 525.566 45.6562C525.407 45.5 525.162 45.3835 524.833 45.3068L523.742 45.0511C523.142 44.9091 522.702 44.6889 522.421 44.3906C522.142 44.0895 522.003 43.7131 522.003 43.2614C522.003 42.892 522.107 42.5653 522.314 42.2812C522.525 41.9972 522.81 41.7741 523.171 41.6122C523.534 41.4503 523.946 41.3693 524.407 41.3693C525.054 41.3693 525.563 41.5114 525.932 41.7955C526.304 42.0795 526.569 42.4545 526.725 42.9205Z" fill="black"/>
<path d="M674.83 41.4545C674.778 41.0227 674.571 40.6875 674.207 40.4489C673.844 40.2102 673.398 40.0909 672.869 40.0909C672.483 40.0909 672.145 40.1534 671.855 40.2784C671.568 40.4034 671.344 40.5753 671.182 40.794C671.023 41.0128 670.943 41.2614 670.943 41.5398C670.943 41.7727 670.999 41.973 671.109 42.1406C671.223 42.3054 671.368 42.4432 671.544 42.554C671.72 42.6619 671.905 42.7514 672.098 42.8224C672.291 42.8906 672.469 42.946 672.631 42.9886L673.517 43.2273C673.744 43.2869 673.997 43.3693 674.276 43.4744C674.557 43.5795 674.825 43.723 675.081 43.9048C675.339 44.0838 675.553 44.3139 675.72 44.5952C675.888 44.8764 675.972 45.2216 675.972 45.6307C675.972 46.1023 675.848 46.5284 675.601 46.9091C675.357 47.2898 674.999 47.5923 674.527 47.8168C674.058 48.0412 673.489 48.1534 672.818 48.1534C672.193 48.1534 671.652 48.0526 671.195 47.8509C670.74 47.6491 670.382 47.3679 670.121 47.0071C669.862 46.6463 669.716 46.2273 669.682 45.75H670.773C670.801 46.0795 670.912 46.3523 671.105 46.5682C671.301 46.7812 671.548 46.9403 671.847 47.0455C672.148 47.1477 672.472 47.1989 672.818 47.1989C673.222 47.1989 673.584 47.1335 673.905 47.0028C674.226 46.8693 674.48 46.6847 674.668 46.4489C674.855 46.2102 674.949 45.9318 674.949 45.6136C674.949 45.3239 674.868 45.0881 674.706 44.9062C674.544 44.7244 674.331 44.5767 674.067 44.4631C673.803 44.3494 673.517 44.25 673.21 44.1648L672.136 43.858C671.455 43.6619 670.915 43.3821 670.517 43.0185C670.119 42.6548 669.92 42.179 669.92 41.5909C669.92 41.1023 670.053 40.6761 670.317 40.3125C670.584 39.946 670.942 39.6619 671.391 39.4602C671.842 39.2557 672.347 39.1534 672.903 39.1534C673.466 39.1534 673.966 39.2543 674.403 39.456C674.841 39.6548 675.188 39.9276 675.443 40.2741C675.702 40.6207 675.838 41.0142 675.852 41.4545H674.83ZM677.573 48V41.4545H678.578V48H677.573ZM678.084 40.3636C677.888 40.3636 677.719 40.2969 677.577 40.1634C677.438 40.0298 677.368 39.8693 677.368 39.6818C677.368 39.4943 677.438 39.3338 677.577 39.2003C677.719 39.0668 677.888 39 678.084 39C678.28 39 678.448 39.0668 678.587 39.2003C678.729 39.3338 678.8 39.4943 678.8 39.6818C678.8 39.8693 678.729 40.0298 678.587 40.1634C678.448 40.2969 678.28 40.3636 678.084 40.3636ZM683.062 50.5909C682.577 50.5909 682.159 50.5284 681.81 50.4034C681.46 50.2812 681.169 50.1193 680.936 49.9176C680.706 49.7188 680.523 49.5057 680.386 49.2784L681.188 48.7159C681.278 48.8352 681.393 48.9716 681.533 49.125C681.672 49.2812 681.862 49.4162 682.104 49.5298C682.348 49.6463 682.668 49.7045 683.062 49.7045C683.591 49.7045 684.027 49.5767 684.371 49.321C684.714 49.0653 684.886 48.6648 684.886 48.1193V46.7898H684.801C684.727 46.9091 684.622 47.0568 684.486 47.233C684.352 47.4062 684.159 47.5611 683.906 47.6974C683.656 47.831 683.318 47.8977 682.892 47.8977C682.364 47.8977 681.889 47.7727 681.469 47.5227C681.051 47.2727 680.72 46.9091 680.476 46.4318C680.234 45.9545 680.114 45.375 680.114 44.6932C680.114 44.0227 680.232 43.4389 680.467 42.9418C680.703 42.4418 681.031 42.0554 681.452 41.7827C681.872 41.5071 682.358 41.3693 682.909 41.3693C683.335 41.3693 683.673 41.4403 683.923 41.5824C684.176 41.7216 684.369 41.8807 684.503 42.0597C684.639 42.2358 684.744 42.3807 684.818 42.4943H684.92V41.4545H685.892V48.1875C685.892 48.75 685.764 49.2074 685.509 49.5597C685.256 49.9148 684.915 50.1747 684.486 50.3395C684.06 50.5071 683.585 50.5909 683.062 50.5909ZM683.028 46.9943C683.432 46.9943 683.773 46.902 684.051 46.7173C684.33 46.5327 684.541 46.267 684.686 45.9205C684.831 45.5739 684.903 45.1591 684.903 44.6761C684.903 44.2045 684.832 43.7884 684.69 43.4276C684.548 43.0668 684.338 42.7841 684.06 42.5795C683.781 42.375 683.438 42.2727 683.028 42.2727C682.602 42.2727 682.247 42.3807 681.963 42.5966C681.682 42.8125 681.47 43.1023 681.328 43.4659C681.189 43.8295 681.119 44.233 681.119 44.6761C681.119 45.1307 681.19 45.5327 681.332 45.8821C681.477 46.2287 681.69 46.5014 681.972 46.7003C682.256 46.8963 682.608 46.9943 683.028 46.9943ZM688.739 44.0625V48H687.733V41.4545H688.705V42.4773H688.79C688.943 42.1449 689.176 41.8778 689.489 41.6761C689.801 41.4716 690.205 41.3693 690.699 41.3693C691.142 41.3693 691.53 41.4602 691.862 41.642C692.195 41.821 692.453 42.0938 692.638 42.4602C692.822 42.8239 692.915 43.2841 692.915 43.8409V48H691.909V43.9091C691.909 43.3949 691.776 42.9943 691.509 42.7074C691.241 42.4176 690.875 42.2727 690.409 42.2727C690.088 42.2727 689.801 42.3423 689.548 42.4815C689.298 42.6207 689.101 42.8239 688.956 43.0909C688.811 43.358 688.739 43.6818 688.739 44.0625ZM698.127 48V41.4545H699.133V48H698.127ZM698.639 40.3636C698.443 40.3636 698.274 40.2969 698.132 40.1634C697.993 40.0298 697.923 39.8693 697.923 39.6818C697.923 39.4943 697.993 39.3338 698.132 39.2003C698.274 39.0668 698.443 39 698.639 39C698.835 39 699.002 39.0668 699.142 39.2003C699.284 39.3338 699.355 39.4943 699.355 39.6818C699.355 39.8693 699.284 40.0298 699.142 40.1634C699.002 40.2969 698.835 40.3636 698.639 40.3636ZM701.981 44.0625V48H700.975V41.4545H701.947V42.4773H702.032C702.185 42.1449 702.418 41.8778 702.731 41.6761C703.043 41.4716 703.447 41.3693 703.941 41.3693C704.384 41.3693 704.772 41.4602 705.104 41.642C705.437 41.821 705.695 42.0938 705.88 42.4602C706.065 42.8239 706.157 43.2841 706.157 43.8409V48H705.151V43.9091C705.151 43.3949 705.018 42.9943 704.751 42.7074C704.484 42.4176 704.117 42.2727 703.651 42.2727C703.33 42.2727 703.043 42.3423 702.79 42.4815C702.54 42.6207 702.343 42.8239 702.198 43.0909C702.053 43.358 701.981 43.6818 701.981 44.0625Z" fill="black"/>
<ellipse cx="727.5" cy="42" rx="9.5" ry="10" fill="black"/>
</g>
<defs>
<clipPath id="clip0_14_256">
<rect width="949.85" height="463.64" fill="white"/>
</clipPath>
<clipPath id="clip1_14_256">
<rect width="333" height="180" fill="white" transform="translate(431 142)"/>
</clipPath>
</defs>
</svg>
